<svg width="32" height="32" viewBox="0 0 32 32" fill="none" xmlns="http://www.w3.org/2000/svg">
<g id="place-marker" fill="blue">
<path id="mymarker" d="M16 1C13.3478 1 10.8043 2.05357 8.92896 3.92893C7.05359 5.8043 6 8.34784 6 11C6 16.523 16 31 16 31C16 31 26 16.523 26 11C26 8.34784 24.9464 5.8043 23.071 3.92893C21.1957 2.05357 18.6522 1 16 1ZM16 14C15.4067 14 14.8267 13.8241 14.3333 13.4944C13.84 13.1648 13.4554 12.6962 13.2283 12.148C13.0013 11.5999 12.9419 10.9967 13.0576 10.4147C13.1734 9.83279 13.4591 9.29824 13.8787 8.87868C14.2982 8.45912 14.8328 8.1734 15.4147 8.05764C15.9967 7.94189 16.5999 8.0013 17.1481 8.22836C17.6962 8.45543 18.1647 8.83994 18.4944 9.33329C18.824 9.82664 19 10.4067 19 11C19 11.7956 18.6839 12.5587 18.1213 13.1213C17.5587 13.6839 16.7956 14 16 14Z" stroke="#5D76A9" fill="white" stroke-width="3" stroke-linecap="round" stroke-linejoin="round"/>
</g>
</svg>
