<svg width="120" height="51" viewBox="0 0 120 51" fill="none" xmlns="http://www.w3.org/2000/svg">
<g id="logo-letters">
<path id="jitterbo" d="M13.724 16.02C12.932 16.02 12.26 15.744 11.708 15.192C11.156 14.64 10.88 13.968 10.88 13.176C10.88 12.384 11.156 11.712 11.708 11.16C12.26 10.584 12.932 10.296 13.724 10.296C14.516 10.296 15.188 10.584 15.74 11.16C16.316 11.712 16.604 12.384 16.604 13.176C16.604 13.968 16.316 14.64 15.74 15.192C15.188 15.744 14.516 16.02 13.724 16.02ZM4.76 45C3.608 45 2.648 44.7 1.88 44.1C1.112 43.5 0.728 42.636 0.728 41.508C0.728 39.18 2.696 37.392 6.632 36.144L10.484 18H15.668L12.104 34.704C13.256 34.32 14.18 33.744 14.876 32.976C15.572 32.208 16.16 31.068 16.64 29.556H18.152C17.504 31.692 16.628 33.264 15.524 34.272C14.42 35.256 13.172 35.928 11.78 36.288L11.24 38.88C10.76 41.208 9.932 42.804 8.756 43.668C7.58 44.556 6.248 45 4.76 45ZM3.932 42.192C4.34 42.192 4.736 41.916 5.12 41.364C5.504 40.812 5.804 40.02 6.02 38.988L6.236 37.944C3.884 38.808 2.708 39.828 2.708 41.004C2.708 41.316 2.816 41.592 3.032 41.832C3.248 42.072 3.548 42.192 3.932 42.192ZM22.6604 16.056C21.8684 16.056 21.1964 15.78 20.6444 15.228C20.0924 14.676 19.8164 14.004 19.8164 13.212C19.8164 12.42 20.0924 11.748 20.6444 11.196C21.1964 10.62 21.8684 10.332 22.6604 10.332C23.4524 10.332 24.1244 10.62 24.6764 11.196C25.2524 11.748 25.5404 12.42 25.5404 13.212C25.5404 14.004 25.2524 14.676 24.6764 15.228C24.1244 15.78 23.4524 16.056 22.6604 16.056ZM20.2124 36.216C19.0604 36.216 18.1244 35.856 17.4044 35.136C16.7084 34.416 16.3604 33.336 16.3604 31.896C16.3604 31.296 16.4564 30.516 16.6484 29.556L19.0964 18H24.2804L21.6884 30.24C21.5924 30.6 21.5444 30.984 21.5444 31.392C21.5444 31.872 21.6524 32.22 21.8684 32.436C22.1084 32.628 22.4924 32.724 23.0204 32.724C23.7164 32.724 24.3644 32.436 24.9644 31.86C25.5644 31.26 25.9964 30.492 26.2604 29.556H27.7724C26.8844 32.148 25.7444 33.912 24.3524 34.848C22.9604 35.76 21.5804 36.216 20.2124 36.216ZM29.8101 36.216C28.6581 36.216 27.7221 35.856 27.0021 35.136C26.3061 34.416 25.9581 33.336 25.9581 31.896C25.9581 31.296 26.0541 30.516 26.2461 29.556L28.4061 19.44H27.2181L27.5061 18H28.6941L29.7741 13.032L35.1021 12.312L33.8781 18H36.0381L35.7501 19.44H33.5901L31.2861 30.24C31.1901 30.6 31.1421 30.984 31.1421 31.392C31.1421 31.872 31.2501 32.22 31.4661 32.436C31.7061 32.628 32.0901 32.724 32.6181 32.724C33.3141 32.724 33.9621 32.436 34.5621 31.86C35.1621 31.26 35.5941 30.492 35.8581 29.556H37.3701C36.4821 32.148 35.3421 33.912 33.9501 34.848C32.5581 35.76 31.1781 36.216 29.8101 36.216ZM39.4078 36.216C38.2558 36.216 37.3198 35.856 36.5998 35.136C35.9038 34.416 35.5557 33.336 35.5557 31.896C35.5557 31.296 35.6517 30.516 35.8438 29.556L38.0038 19.44H36.8158L37.1038 18H38.2918L39.3718 13.032L44.6998 12.312L43.4758 18H45.6358L45.3477 19.44H43.1878L40.8838 30.24C40.7878 30.6 40.7398 30.984 40.7398 31.392C40.7398 31.872 40.8478 32.22 41.0638 32.436C41.3038 32.628 41.6878 32.724 42.2158 32.724C42.9118 32.724 43.5598 32.436 44.1598 31.86C44.7598 31.26 45.1918 30.492 45.4558 29.556H46.9678C46.0798 32.148 44.9398 33.912 43.5478 34.848C42.1558 35.76 40.7758 36.216 39.4078 36.216ZM50.5894 36.216C48.8134 36.216 47.4334 35.76 46.4494 34.848C45.4654 33.912 44.9734 32.46 44.9734 30.492C44.9734 28.836 45.2974 27.012 45.9454 25.02C46.5934 23.028 47.6494 21.312 49.1134 19.872C50.5774 18.408 52.4374 17.676 54.6934 17.676C57.3334 17.676 58.6534 18.828 58.6534 21.132C58.6534 22.476 58.2694 23.712 57.5014 24.84C56.7334 25.968 55.7134 26.88 54.4414 27.576C53.1694 28.248 51.8134 28.632 50.3734 28.728C50.3254 29.448 50.3014 29.928 50.3014 30.168C50.3014 31.344 50.5054 32.148 50.9134 32.58C51.3214 32.988 51.9814 33.192 52.8934 33.192C54.1894 33.192 55.2934 32.892 56.2054 32.292C57.1414 31.692 58.1614 30.78 59.2654 29.556H60.4894C57.8254 33.996 54.5254 36.216 50.5894 36.216ZM50.6614 27C51.5494 26.952 52.3894 26.64 53.1814 26.064C53.9974 25.488 54.6454 24.756 55.1254 23.868C55.6294 22.98 55.8814 22.044 55.8814 21.06C55.8814 20.076 55.5814 19.584 54.9814 19.584C54.1174 19.584 53.2654 20.34 52.4254 21.852C51.6094 23.364 51.0214 25.08 50.6614 27ZM61.7058 18H66.8898L66.4218 20.232C67.2378 19.512 67.9698 18.96 68.6178 18.576C69.2898 18.192 70.0098 18 70.7778 18C71.5458 18 72.1458 18.264 72.5778 18.792C73.0338 19.32 73.2618 19.956 73.2618 20.7C73.2618 21.396 73.0338 22.008 72.5778 22.536C72.1218 23.064 71.4858 23.328 70.6698 23.328C70.1418 23.328 69.7818 23.208 69.5898 22.968C69.4218 22.704 69.2898 22.332 69.1938 21.852C69.1218 21.54 69.0498 21.312 68.9778 21.168C68.9058 21.024 68.7738 20.952 68.5818 20.952C68.0778 20.952 67.6458 21.06 67.2858 21.276C66.9498 21.468 66.5058 21.816 65.9538 22.32L63.0738 36H57.8898L61.7058 18ZM77.581 36.216C75.949 36.216 74.701 35.82 73.837 35.028C72.973 34.212 72.541 33.072 72.541 31.608C72.541 30.888 72.625 30.204 72.793 29.556L76.645 11.52L81.973 10.8L80.245 18.9C80.917 18.492 81.469 18.228 81.901 18.108C82.333 17.964 82.765 17.892 83.197 17.892C86.029 17.892 87.445 19.944 87.445 24.048C87.445 25.704 87.121 27.48 86.473 29.376C85.849 31.248 84.793 32.856 83.305 34.2C81.841 35.544 79.933 36.216 77.581 36.216ZM79.597 32.724C80.341 32.724 81.037 32.268 81.685 31.356C82.333 30.42 82.849 29.268 83.233 27.9C83.617 26.508 83.809 25.176 83.809 23.904C83.809 22.944 83.641 22.128 83.305 21.456C82.969 20.784 82.501 20.448 81.901 20.448C81.541 20.448 81.133 20.508 80.677 20.628C80.245 20.724 79.945 20.88 79.777 21.096L77.797 30.24C77.725 30.528 77.689 30.804 77.689 31.068C77.689 32.172 78.325 32.724 79.597 32.724ZM94.0451 36.144C92.2691 36.144 90.8651 35.688 89.8331 34.776C88.8011 33.864 88.2851 32.424 88.2851 30.456C88.2851 28.8 88.6091 26.988 89.2571 25.02C89.9051 23.028 90.9611 21.312 92.4251 19.872C93.8891 18.408 95.7611 17.676 98.0411 17.676C100.873 17.676 102.397 19.296 102.613 22.536C103.141 22.416 103.609 22.128 104.017 21.672C104.425 21.192 104.809 20.652 105.169 20.052H106.321C105.673 21.348 105.097 22.368 104.593 23.112C104.089 23.832 103.429 24.42 102.613 24.876C102.469 27.132 102.001 29.112 101.209 30.816C100.441 32.52 99.4331 33.84 98.1851 34.776C96.9371 35.688 95.5571 36.144 94.0451 36.144ZM95.4851 32.904C96.3731 32.904 97.2011 32.184 97.9691 30.744C98.7371 29.304 99.2651 27.528 99.5531 25.416C98.9771 25.2 98.6891 24.66 98.6891 23.796C98.6891 22.86 99.0251 22.236 99.6971 21.924C99.6491 21.156 99.5171 20.628 99.3011 20.34C99.1091 20.028 98.7851 19.872 98.3291 19.872C97.5371 19.872 96.7811 20.448 96.0611 21.6C95.3411 22.728 94.7531 24.108 94.2971 25.74C93.8651 27.348 93.6491 28.764 93.6491 29.988C93.6491 31.14 93.7811 31.92 94.0451 32.328C94.3091 32.712 94.7891 32.904 95.4851 32.904Z" fill="#373737"/>
<path id="last-letter" d="M113.672 26.1C114.008 25.644 114.332 25.164 114.644 24.66C114.98 24.156 115.28 23.64 115.544 23.112C115.808 22.584 116.012 22.068 116.156 21.564C116.324 21.06 116.408 20.568 116.408 20.088C116.408 19.968 116.408 19.86 116.408 19.764C116.408 19.668 116.396 19.572 116.372 19.476C116.156 19.572 115.904 19.62 115.616 19.62C115.088 19.62 114.62 19.452 114.212 19.116C113.828 18.756 113.636 18.288 113.636 17.712C113.636 17.184 113.816 16.74 114.176 16.38C114.536 16.02 114.992 15.84 115.544 15.84C116.24 15.84 116.828 16.152 117.308 16.776C117.788 17.376 118.028 18.252 118.028 19.404C118.028 20.676 117.692 21.96 117.02 23.256C116.372 24.552 115.448 26.028 114.248 27.684L114.968 29.592C115.4 30.768 115.832 31.716 116.264 32.436C116.696 33.132 117.272 33.48 117.992 33.48C118.328 33.48 118.58 33.444 118.748 33.372C118.94 33.3 119.084 33.24 119.18 33.192C119.204 33.312 119.216 33.432 119.216 33.552C119.24 33.672 119.252 33.792 119.252 33.912C119.252 34.392 119.144 34.788 118.928 35.1C118.712 35.388 118.448 35.616 118.136 35.784C117.848 35.952 117.536 36.06 117.2 36.108C116.888 36.18 116.612 36.216 116.372 36.216C115.364 36.216 114.464 35.748 113.672 34.812C112.904 33.852 112.112 32.268 111.296 30.06L107.516 36H105.068L110.648 28.224L109.064 23.76C108.632 22.536 108.272 21.696 107.984 21.24C107.696 20.76 107.384 20.52 107.048 20.52C105.704 20.52 104.672 23.556 103.952 29.628H102.62C102.764 28.908 102.896 28.116 103.016 27.252C103.16 26.388 103.316 25.524 103.484 24.66C103.652 23.772 103.856 22.92 104.096 22.104C104.336 21.288 104.636 20.568 104.996 19.944C105.38 19.296 105.824 18.78 106.328 18.396C106.832 18.012 107.444 17.82 108.164 17.82C109.22 17.82 110.048 18.228 110.648 19.044C111.248 19.836 111.776 20.856 112.232 22.104L113.672 26.1Z" fill="#ACE1AF"/>
</g>
</svg>
